<svg width="252" height="36" viewBox="0 0 252 36" fill="none" xmlns="http://www.w3.org/2000/svg">
<g filter="url(#filter0_i_4_4)">
<path d="M21.296 28.32C21.296 29.3013 21.2107 30.1547 21.04 30.88C21.2107 31.5627 21.296 32.416 21.296 33.44C21.296 34.4213 21.2107 35.2747 21.04 36H15.92C15.7493 35.2747 15.664 34.4213 15.664 33.44C15.664 32.416 15.7493 31.5627 15.92 30.88C15.7493 30.1547 15.664 29.3013 15.664 28.32C15.664 27.296 15.7493 26.4427 15.92 25.76H5.68C5.85067 26.4427 5.936 27.296 5.936 28.32C5.936 29.3013 5.85067 30.1547 5.68 30.88C5.85067 31.5627 5.936 32.416 5.936 33.44C5.936 34.4213 5.85067 35.2747 5.68 36H0.56C0.389333 35.2747 0.304 34.4213 0.304 33.44C0.304 32.416 0.389333 31.5627 0.56 30.88C0.389333 30.1547 0.304 29.3013 0.304 28.32C0.304 27.296 0.389333 26.4427 0.56 25.76H2.48C2.30933 25.0347 2.224 24.1813 2.224 23.2C2.224 22.176 2.30933 21.3227 2.48 20.64C2.30933 19.9147 2.224 19.0613 2.224 18.08C2.224 17.056 2.30933 16.2027 2.48 15.52H3.76C3.58933 14.7947 3.504 13.9413 3.504 12.96C3.504 11.936 3.58933 11.0827 3.76 10.4H5.68C5.50933 9.67467 5.424 8.82133 5.424 7.84C5.424 6.816 5.50933 5.96267 5.68 5.28H6.96C6.78933 4.55467 6.704 3.70133 6.704 2.72C6.704 1.696 6.78933 0.842665 6.96 0.16H14.64C14.8107 0.842665 14.896 1.696 14.896 2.72C14.896 3.70133 14.8107 4.55467 14.64 5.28H15.92C16.0907 5.96267 16.176 6.816 16.176 7.84C16.176 8.82133 16.0907 9.67467 15.92 10.4H17.84C18.0107 11.0827 18.096 11.936 18.096 12.96C18.096 13.9413 18.0107 14.7947 17.84 15.52H19.12C19.2907 16.2027 19.376 17.056 19.376 18.08C19.376 19.0613 19.2907 19.9147 19.12 20.64C19.2907 21.3227 19.376 22.176 19.376 23.2C19.376 24.1813 19.2907 25.0347 19.12 25.76H21.04C21.2107 26.4427 21.296 27.296 21.296 28.32ZM14 20.64C13.8293 19.9147 13.744 19.0613 13.744 18.08C13.744 17.056 13.8293 16.2027 14 15.52H12.72C12.5493 14.7947 12.464 13.9413 12.464 12.96C12.464 11.936 12.5493 11.0827 12.72 10.4H8.88C9.05067 11.0827 9.136 11.936 9.136 12.96C9.136 13.9413 9.05067 14.7947 8.88 15.52H7.6C7.77067 16.2027 7.856 17.056 7.856 18.08C7.856 19.0613 7.77067 19.9147 7.6 20.64H14Z" fill="#8139BA"/>
<path d="M46.921 18.08C46.921 19.0613 46.8357 19.9147 46.665 20.64C46.8357 21.3227 46.921 22.176 46.921 23.2C46.921 24.1813 46.8357 25.0347 46.665 25.76H33.225C33.3957 26.4427 33.481 27.296 33.481 28.32C33.481 29.3013 33.3957 30.1547 33.225 30.88H44.105C44.2757 31.5627 44.361 32.416 44.361 33.44C44.361 34.4213 44.2757 35.2747 44.105 36H31.305C31.1343 35.2747 31.049 34.4213 31.049 33.44C31.049 32.416 31.1343 31.5627 31.305 30.88H28.105C27.9343 30.1547 27.849 29.3013 27.849 28.32C27.849 27.296 27.9343 26.4427 28.105 25.76H26.185C26.0143 25.0347 25.929 24.1813 25.929 23.2C25.929 22.176 26.0143 21.3227 26.185 20.64H28.105C27.9343 19.9147 27.849 19.0613 27.849 18.08C27.849 17.056 27.9343 16.2027 28.105 15.52H31.305C31.1343 14.7947 31.049 13.9413 31.049 12.96C31.049 11.936 31.1343 11.0827 31.305 10.4H44.105C44.2757 11.0827 44.361 11.936 44.361 12.96C44.361 13.9413 44.2757 14.7947 44.105 15.52H46.665C46.8357 16.2027 46.921 17.056 46.921 18.08ZM41.545 20.64C41.3743 19.9147 41.289 19.0613 41.289 18.08C41.289 17.056 41.3743 16.2027 41.545 15.52H33.225C33.3957 16.2027 33.481 17.056 33.481 18.08C33.481 19.0613 33.3957 19.9147 33.225 20.64H41.545Z" fill="#C656D9"/>
<path d="M71.266 28.32C71.266 29.3013 71.1807 30.1547 71.01 30.88H68.45C68.6207 31.5627 68.706 32.416 68.706 33.44C68.706 34.4213 68.6207 35.2747 68.45 36H54.37C54.1993 35.2747 54.114 34.4213 54.114 33.44C54.114 32.416 54.1993 31.5627 54.37 30.88H65.89C65.7193 30.1547 65.634 29.3013 65.634 28.32C65.634 27.296 65.7193 26.4427 65.89 25.76H55.65C55.4793 25.0347 55.394 24.1813 55.394 23.2C55.394 22.176 55.4793 21.3227 55.65 20.64H53.09C52.9193 19.9147 52.834 19.0613 52.834 18.08C52.834 17.056 52.9193 16.2027 53.09 15.52H55.65C55.4793 14.7947 55.394 13.9413 55.394 12.96C55.394 11.936 55.4793 11.0827 55.65 10.4H69.73C69.9007 11.0827 69.986 11.936 69.986 12.96C69.986 13.9413 69.9007 14.7947 69.73 15.52H58.21C58.3807 16.2027 58.466 17.056 58.466 18.08C58.466 19.0613 58.3807 19.9147 58.21 20.64H68.45C68.6207 21.3227 68.706 22.176 68.706 23.2C68.706 24.1813 68.6207 25.0347 68.45 25.76H71.01C71.1807 26.4427 71.266 27.296 71.266 28.32Z" fill="#1B4AC1"/>
<path d="M95.355 30.88C95.5257 31.5627 95.611 32.416 95.611 33.44C95.611 34.4213 95.5257 35.2747 95.355 36H85.115C84.9443 35.2747 84.859 34.4213 84.859 33.44C84.859 32.416 84.9443 31.5627 85.115 30.88H82.555C82.3843 30.1547 82.299 29.3013 82.299 28.32C82.299 27.296 82.3843 26.4427 82.555 25.76C82.3843 25.0347 82.299 24.1813 82.299 23.2C82.299 22.176 82.3843 21.3227 82.555 20.64C82.3843 19.9147 82.299 19.0613 82.299 18.08C82.299 17.056 82.3843 16.2027 82.555 15.52H77.435C77.2643 14.7947 77.179 13.9413 77.179 12.96C77.179 11.936 77.2643 11.0827 77.435 10.4H82.555C82.3843 9.67467 82.299 8.82133 82.299 7.84C82.299 6.816 82.3843 5.96267 82.555 5.28C82.3843 4.55467 82.299 3.70133 82.299 2.72C82.299 1.696 82.3843 0.842665 82.555 0.16H87.675C87.8457 0.842665 87.931 1.696 87.931 2.72C87.931 3.70133 87.8457 4.55467 87.675 5.28C87.8457 5.96267 87.931 6.816 87.931 7.84C87.931 8.82133 87.8457 9.67467 87.675 10.4H95.355C95.5257 11.0827 95.611 11.936 95.611 12.96C95.611 13.9413 95.5257 14.7947 95.355 15.52H87.675C87.8457 16.2027 87.931 17.056 87.931 18.08C87.931 19.0613 87.8457 19.9147 87.675 20.64C87.8457 21.3227 87.931 22.176 87.931 23.2C87.931 24.1813 87.8457 25.0347 87.675 25.76C87.8457 26.4427 87.931 27.296 87.931 28.32C87.931 29.3013 87.8457 30.1547 87.675 30.88H95.355Z" fill="#7116B9"/>
<path d="M108.436 12.96C108.436 13.9413 108.351 14.7947 108.18 15.52H110.1C110.271 16.2027 110.356 17.056 110.356 18.08C110.356 19.0613 110.271 19.9147 110.1 20.64H108.18C108.351 21.3227 108.436 22.176 108.436 23.2C108.436 24.1813 108.351 25.0347 108.18 25.76C108.351 26.4427 108.436 27.296 108.436 28.32C108.436 29.3013 108.351 30.1547 108.18 30.88C108.351 31.5627 108.436 32.416 108.436 33.44C108.436 34.4213 108.351 35.2747 108.18 36H103.06C102.889 35.2747 102.804 34.4213 102.804 33.44C102.804 32.416 102.889 31.5627 103.06 30.88C102.889 30.1547 102.804 29.3013 102.804 28.32C102.804 27.296 102.889 26.4427 103.06 25.76C102.889 25.0347 102.804 24.1813 102.804 23.2C102.804 22.176 102.889 21.3227 103.06 20.64C102.889 19.9147 102.804 19.0613 102.804 18.08C102.804 17.056 102.889 16.2027 103.06 15.52C102.889 14.7947 102.804 13.9413 102.804 12.96C102.804 11.936 102.889 11.0827 103.06 10.4C102.889 9.67467 102.804 8.82133 102.804 7.84C102.804 6.816 102.889 5.96267 103.06 5.28C102.889 4.55467 102.804 3.70133 102.804 2.72C102.804 1.696 102.889 0.842665 103.06 0.16H108.18C108.351 0.842665 108.436 1.696 108.436 2.72C108.436 3.70133 108.351 4.55467 108.18 5.28C108.351 5.96267 108.436 6.816 108.436 7.84C108.436 8.82133 108.351 9.67467 108.18 10.4C108.351 11.0827 108.436 11.936 108.436 12.96ZM123.54 20.64C123.711 21.3227 123.796 22.176 123.796 23.2C123.796 24.1813 123.711 25.0347 123.54 25.76C123.711 26.4427 123.796 27.296 123.796 28.32C123.796 29.3013 123.711 30.1547 123.54 30.88C123.711 31.5627 123.796 32.416 123.796 33.44C123.796 34.4213 123.711 35.2747 123.54 36H118.42C118.249 35.2747 118.164 34.4213 118.164 33.44C118.164 32.416 118.249 31.5627 118.42 30.88C118.249 30.1547 118.164 29.3013 118.164 28.32C118.164 27.296 118.249 26.4427 118.42 25.76C118.249 25.0347 118.164 24.1813 118.164 23.2C118.164 22.176 118.249 21.3227 118.42 20.64C118.249 19.9147 118.164 19.0613 118.164 18.08C118.164 17.056 118.249 16.2027 118.42 15.52H110.1C109.929 14.7947 109.844 13.9413 109.844 12.96C109.844 11.936 109.929 11.0827 110.1 10.4H120.34C120.511 11.0827 120.596 11.936 120.596 12.96C120.596 13.9413 120.511 14.7947 120.34 15.52H123.54C123.711 16.2027 123.796 17.056 123.796 18.08C123.796 19.0613 123.711 19.9147 123.54 20.64Z" fill="#4E0ADE"/>
<path d="M149.421 18.08C149.421 19.0613 149.336 19.9147 149.165 20.64C149.336 21.3227 149.421 22.176 149.421 23.2C149.421 24.1813 149.336 25.0347 149.165 25.76H135.725C135.896 26.4427 135.981 27.296 135.981 28.32C135.981 29.3013 135.896 30.1547 135.725 30.88H146.605C146.776 31.5627 146.861 32.416 146.861 33.44C146.861 34.4213 146.776 35.2747 146.605 36H133.805C133.634 35.2747 133.549 34.4213 133.549 33.44C133.549 32.416 133.634 31.5627 133.805 30.88H130.605C130.434 30.1547 130.349 29.3013 130.349 28.32C130.349 27.296 130.434 26.4427 130.605 25.76H128.685C128.514 25.0347 128.429 24.1813 128.429 23.2C128.429 22.176 128.514 21.3227 128.685 20.64H130.605C130.434 19.9147 130.349 19.0613 130.349 18.08C130.349 17.056 130.434 16.2027 130.605 15.52H133.805C133.634 14.7947 133.549 13.9413 133.549 12.96C133.549 11.936 133.634 11.0827 133.805 10.4H146.605C146.776 11.0827 146.861 11.936 146.861 12.96C146.861 13.9413 146.776 14.7947 146.605 15.52H149.165C149.336 16.2027 149.421 17.056 149.421 18.08ZM144.045 20.64C143.874 19.9147 143.789 19.0613 143.789 18.08C143.789 17.056 143.874 16.2027 144.045 15.52H135.725C135.896 16.2027 135.981 17.056 135.981 18.08C135.981 19.0613 135.896 19.9147 135.725 20.64H144.045Z" fill="#BE23A5"/>
<path d="M172.23 30.88C172.401 31.5627 172.486 32.416 172.486 33.44C172.486 34.4213 172.401 35.2747 172.23 36H161.99C161.819 35.2747 161.734 34.4213 161.734 33.44C161.734 32.416 161.819 31.5627 161.99 30.88H159.43C159.259 30.1547 159.174 29.3013 159.174 28.32C159.174 27.296 159.259 26.4427 159.43 25.76C159.259 25.0347 159.174 24.1813 159.174 23.2C159.174 22.176 159.259 21.3227 159.43 20.64C159.259 19.9147 159.174 19.0613 159.174 18.08C159.174 17.056 159.259 16.2027 159.43 15.52H154.31C154.139 14.7947 154.054 13.9413 154.054 12.96C154.054 11.936 154.139 11.0827 154.31 10.4H159.43C159.259 9.67467 159.174 8.82133 159.174 7.84C159.174 6.816 159.259 5.96267 159.43 5.28C159.259 4.55467 159.174 3.70133 159.174 2.72C159.174 1.696 159.259 0.842665 159.43 0.16H164.55C164.721 0.842665 164.806 1.696 164.806 2.72C164.806 3.70133 164.721 4.55467 164.55 5.28C164.721 5.96267 164.806 6.816 164.806 7.84C164.806 8.82133 164.721 9.67467 164.55 10.4H172.23C172.401 11.0827 172.486 11.936 172.486 12.96C172.486 13.9413 172.401 14.7947 172.23 15.52H164.55C164.721 16.2027 164.806 17.056 164.806 18.08C164.806 19.0613 164.721 19.9147 164.55 20.64C164.721 21.3227 164.806 22.176 164.806 23.2C164.806 24.1813 164.721 25.0347 164.55 25.76C164.721 26.4427 164.806 27.296 164.806 28.32C164.806 29.3013 164.721 30.1547 164.55 30.88H172.23Z" fill="#119DEC"/>
<path d="M187.615 5.28C187.444 4.55467 187.359 3.70133 187.359 2.72C187.359 1.696 187.444 0.842665 187.615 0.16H192.735C192.906 0.842665 192.991 1.696 192.991 2.72C192.991 3.70133 192.906 4.55467 192.735 5.28H187.615ZM197.855 30.88C198.026 31.5627 198.111 32.416 198.111 33.44C198.111 34.4213 198.026 35.2747 197.855 36H182.495C182.324 35.2747 182.239 34.4213 182.239 33.44C182.239 32.416 182.324 31.5627 182.495 30.88H187.615C187.444 30.1547 187.359 29.3013 187.359 28.32C187.359 27.296 187.444 26.4427 187.615 25.76C187.444 25.0347 187.359 24.1813 187.359 23.2C187.359 22.176 187.444 21.3227 187.615 20.64C187.444 19.9147 187.359 19.0613 187.359 18.08C187.359 17.056 187.444 16.2027 187.615 15.52H183.775C183.604 14.7947 183.519 13.9413 183.519 12.96C183.519 11.936 183.604 11.0827 183.775 10.4H192.735C192.906 11.0827 192.991 11.936 192.991 12.96C192.991 13.9413 192.906 14.7947 192.735 15.52C192.906 16.2027 192.991 17.056 192.991 18.08C192.991 19.0613 192.906 19.9147 192.735 20.64C192.906 21.3227 192.991 22.176 192.991 23.2C192.991 24.1813 192.906 25.0347 192.735 25.76C192.906 26.4427 192.991 27.296 192.991 28.32C192.991 29.3013 192.906 30.1547 192.735 30.88H197.855Z" fill="#7454CE"/>
<path d="M226.04 25.76C226.211 26.4427 226.296 27.296 226.296 28.32C226.296 29.3013 226.211 30.1547 226.04 30.88H223.48C223.651 31.5627 223.736 32.416 223.736 33.44C223.736 34.4213 223.651 35.2747 223.48 36H210.68C210.509 35.2747 210.424 34.4213 210.424 33.44C210.424 32.416 210.509 31.5627 210.68 30.88H208.12C207.949 30.1547 207.864 29.3013 207.864 28.32C207.864 27.296 207.949 26.4427 208.12 25.76H205.56C205.389 25.0347 205.304 24.1813 205.304 23.2C205.304 22.176 205.389 21.3227 205.56 20.64H208.12C207.949 19.9147 207.864 19.0613 207.864 18.08C207.864 17.056 207.949 16.2027 208.12 15.52H210.68C210.509 14.7947 210.424 13.9413 210.424 12.96C210.424 11.936 210.509 11.0827 210.68 10.4H223.48C223.651 11.0827 223.736 11.936 223.736 12.96C223.736 13.9413 223.651 14.7947 223.48 15.52H226.04C226.211 16.2027 226.296 17.056 226.296 18.08C226.296 19.0613 226.211 19.9147 226.04 20.64H220.92C220.749 19.9147 220.664 19.0613 220.664 18.08C220.664 17.056 220.749 16.2027 220.92 15.52H213.24C213.411 16.2027 213.496 17.056 213.496 18.08C213.496 19.0613 213.411 19.9147 213.24 20.64H210.68C210.851 21.3227 210.936 22.176 210.936 23.2C210.936 24.1813 210.851 25.0347 210.68 25.76H213.24C213.411 26.4427 213.496 27.296 213.496 28.32C213.496 29.3013 213.411 30.1547 213.24 30.88H220.92C220.749 30.1547 220.664 29.3013 220.664 28.32C220.664 27.296 220.749 26.4427 220.92 25.76H226.04Z" fill="#2D56C0"/>
<path d="M251.665 30.88C251.836 31.5627 251.921 32.416 251.921 33.44C251.921 34.4213 251.836 35.2747 251.665 36H246.545C246.374 35.2747 246.289 34.4213 246.289 33.44C246.289 32.416 246.374 31.5627 246.545 30.88H243.985C243.814 30.1547 243.729 29.3013 243.729 28.32C243.729 27.296 243.814 26.4427 243.985 25.76H236.305C236.476 26.4427 236.561 27.296 236.561 28.32C236.561 29.3013 236.476 30.1547 236.305 30.88H243.985C244.156 31.5627 244.241 32.416 244.241 33.44C244.241 34.4213 244.156 35.2747 243.985 36H233.745C233.574 35.2747 233.489 34.4213 233.489 33.44C233.489 32.416 233.574 31.5627 233.745 30.88H231.185C231.014 30.1547 230.929 29.3013 230.929 28.32C230.929 27.296 231.014 26.4427 231.185 25.76H233.745C233.574 25.0347 233.489 24.1813 233.489 23.2C233.489 22.176 233.574 21.3227 233.745 20.64H243.985C243.814 19.9147 243.729 19.0613 243.729 18.08C243.729 17.056 243.814 16.2027 243.985 15.52H235.025C234.854 14.7947 234.769 13.9413 234.769 12.96C234.769 11.936 234.854 11.0827 235.025 10.4H246.545C246.716 11.0827 246.801 11.936 246.801 12.96C246.801 13.9413 246.716 14.7947 246.545 15.52H249.105C249.276 16.2027 249.361 17.056 249.361 18.08C249.361 19.0613 249.276 19.9147 249.105 20.64C249.276 21.3227 249.361 22.176 249.361 23.2C249.361 24.1813 249.276 25.0347 249.105 25.76C249.276 26.4427 249.361 27.296 249.361 28.32C249.361 29.3013 249.276 30.1547 249.105 30.88H251.665Z" fill="#CD13EC"/>
</g>
<defs>
<filter id="filter0_i_4_4" x="0.303986" y="0.160004" width="251.617" height="39.84" filterUnits="userSpaceOnUse" color-interpolation-filters="sRGB">
<feFlood flood-opacity="0" result="BackgroundImageFix"/>
<feBlend mode="normal" in="SourceGraphic" in2="BackgroundImageFix" result="shape"/>
<feColorMatrix in="SourceAlpha" type="matrix" values="0 0 0 0 0 0 0 0 0 0 0 0 0 0 0 0 0 0 127 0" result="hardAlpha"/>
<feOffset dy="4"/>
<feGaussianBlur stdDeviation="2"/>
<feComposite in2="hardAlpha" operator="arithmetic" k2="-1" k3="1"/>
<feColorMatrix type="matrix" values="0 0 0 0 0 0 0 0 0 0 0 0 0 0 0 0 0 0 0.25 0"/>
<feBlend mode="normal" in2="shape" result="effect1_innerShadow_4_4"/>
</filter>
</defs>
</svg>
