<svg width="445" height="63" viewBox="0 0 445 63" fill="none" xmlns="http://www.w3.org/2000/svg">
<g filter="url(#filter0_d_4_2)">
<path d="M28.25 36.8125L29.1562 34.5625H36.8438L37.75 36.8125H28.25ZM26.5 41.3125L27.375 39.0625H38.5938L39.5625 41.3125H26.5ZM24.75 45.8125L25.625 43.5625H40.375L41.3125 45.8125H24.75ZM6.46875 52H4.03125L24.5 0.25H26.9375L47.375 52H44.9688L25.7188 3.28125L6.46875 52ZM26 8.625L27.2812 11.5L11.2812 52H8.875L26 8.625ZM28.5 14.5625L29.6875 17.6562L16.1562 52H13.7188L28.5 14.5625ZM30.875 20.75L32.0625 23.9062L20.9688 52H18.5625L30.875 20.75ZM61.9062 52H59.4688L39.0312 0.25H41.4375L61.9062 52ZM36.5938 0.25L57.0625 52H54.6562L34.1875 0.25H36.5938ZM31.75 0.25L52.2188 52H49.7812L29.3438 0.25H31.75Z" fill="#8139BA"/>
<path d="M77.0938 52H74.8438V7H77.0938V52ZM72.5938 52H70.3438V7H72.5938V52ZM68.0938 52H65.8438V7H68.0938V52ZM81.5938 40.75H103.125V43H81.5938V45.25H103.125V47.5H81.5938V49.75H103.125V52H79.3438V7H103.125V9.25H81.5938V11.5H103.125V13.75H81.5938V16H103.125V18.25H81.5938V23.8438H101.875V26.0938H81.5938V28.3438H101.875V30.5938H81.5938V32.8438H101.875V35.0938H81.5938V40.75Z" fill="#C656D9"/>
<path d="M129.219 30.5938H125.656C121.281 30.5938 117.917 29.7083 115.562 27.9375C113.208 26.1458 112.031 23.6875 112.031 20.5625C112.031 17.6458 113.417 15.2188 116.188 13.2812C118.958 11.3229 122.844 10.3438 127.844 10.3438C131.177 10.3438 134.281 10.8021 137.156 11.7188C140.052 12.6354 142.458 13.9271 144.375 15.5938L142.625 17C140.917 15.6042 138.771 14.5208 136.188 13.75C133.604 12.9792 130.823 12.5938 127.844 12.5938C123.448 12.5938 120.083 13.3438 117.75 14.8438C115.438 16.3438 114.281 18.25 114.281 20.5625C114.281 23.0625 115.229 24.9896 117.125 26.3438C119.042 27.6771 121.885 28.3438 125.656 28.3438H129.094C133.531 28.3438 136.927 29.2396 139.281 31.0312C141.656 32.8021 142.844 35.25 142.844 38.375C142.844 41.2917 141.458 43.7292 138.688 45.6875C135.917 47.625 132.031 48.5938 127.031 48.5938C123.698 48.5938 120.583 48.1354 117.688 47.2188C114.812 46.3021 112.417 45.0104 110.5 43.3438L112.25 41.9375C113.958 43.3333 116.104 44.4167 118.688 45.1875C121.271 45.9583 124.052 46.3438 127.031 46.3438C131.427 46.3438 134.781 45.5938 137.094 44.0938C139.427 42.5938 140.594 40.6875 140.594 38.375C140.594 35.875 139.635 33.9583 137.719 32.625C135.823 31.2708 132.99 30.5938 129.219 30.5938ZM129.219 35.0938H125.656C119.865 35.0938 115.396 33.7812 112.25 31.1562C109.104 28.5104 107.531 24.9792 107.531 20.5625C107.531 18.5417 107.979 16.6458 108.875 14.875C109.771 13.1042 111.052 11.5521 112.719 10.2188C114.406 8.86458 116.552 7.80208 119.156 7.03125C121.76 6.23958 124.656 5.84375 127.844 5.84375C131.865 5.84375 135.625 6.45833 139.125 7.6875C142.625 8.89583 145.542 10.5938 147.875 12.7812L146.062 14.125C143.938 12.2083 141.281 10.7292 138.094 9.6875C134.906 8.625 131.49 8.09375 127.844 8.09375C122.219 8.09375 117.802 9.28125 114.594 11.6562C111.385 14.0312 109.781 17 109.781 20.5625C109.781 24.3333 111.156 27.3229 113.906 29.5312C116.656 31.7396 120.573 32.8438 125.656 32.8438H129.094C135.26 32.8438 138.344 34.6875 138.344 38.375C138.344 40.0417 137.396 41.4167 135.5 42.5C133.625 43.5625 130.802 44.0938 127.031 44.0938C124.385 44.0938 121.927 43.7917 119.656 43.1875C117.385 42.5625 115.51 41.6771 114.031 40.5312L115.812 39.1562C118.417 40.9479 122.156 41.8438 127.031 41.8438C130.156 41.8438 132.448 41.5208 133.906 40.875C135.365 40.2292 136.094 39.3958 136.094 38.375C136.094 37.1875 135.583 36.3438 134.562 35.8438C133.542 35.3438 131.76 35.0938 129.219 35.0938ZM129.219 26.0938H125.656C119.573 26.0938 116.531 24.25 116.531 20.5625C116.531 18.8958 117.469 17.5312 119.344 16.4688C121.24 15.3854 124.073 14.8438 127.844 14.8438C130.49 14.8438 132.948 15.1562 135.219 15.7812C137.49 16.3854 139.365 17.2604 140.844 18.4062L139.062 19.7812C136.458 17.9896 132.719 17.0938 127.844 17.0938C124.719 17.0938 122.427 17.4167 120.969 18.0625C119.51 18.7083 118.781 19.5417 118.781 20.5625C118.781 21.75 119.292 22.5938 120.312 23.0938C121.333 23.5938 123.115 23.8438 125.656 23.8438H129.219C135.01 23.8438 139.479 25.1667 142.625 27.8125C145.771 30.4375 147.344 33.9583 147.344 38.375C147.344 40.3958 146.896 42.2917 146 44.0625C145.104 45.8333 143.812 47.3958 142.125 48.75C140.458 50.0833 138.323 51.1458 135.719 51.9375C133.115 52.7083 130.219 53.0938 127.031 53.0938C123.01 53.0938 119.25 52.4896 115.75 51.2812C112.25 50.0521 109.333 48.3438 107 46.1562L108.812 44.8125C110.938 46.7292 113.594 48.2188 116.781 49.2812C119.969 50.3229 123.385 50.8438 127.031 50.8438C132.656 50.8438 137.073 49.6562 140.281 47.2812C143.49 44.9062 145.094 41.9375 145.094 38.375C145.094 34.6042 143.719 31.6146 140.969 29.4062C138.219 27.1979 134.302 26.0938 129.219 26.0938Z" fill="#1B4AC1"/>
<path d="M160.25 19.4688H162.5V52H160.25V19.4688ZM151.25 9.25V7H185V9.25H151.25ZM151.25 13.75V11.5H185V13.75H151.25ZM151.25 18.25V16H185V18.25H151.25ZM173.75 19.4688H176V52H173.75V19.4688ZM169.25 19.4688H171.5V52H169.25V19.4688ZM164.75 19.4688H167V52H164.75V19.4688Z" fill="#7116B9"/>
<path d="M235 7H237.25V52H235V7ZM189.969 7H192.219V52H189.969V7ZM230.5 7H232.75V52H230.5V7ZM226 7H228.25V52H226V7ZM221.5 7H223.75V52H221.5V34H205.719V52H203.469V7H205.719V22.75H221.5V7ZM198.969 7H201.219V52H198.969V7ZM194.469 7H196.719V52H194.469V7ZM221.5 31.75V29.5H205.719V31.75H221.5ZM221.5 27.25V25H205.719V27.25H221.5Z" fill="#4E0ADE"/>
<path d="M254.406 52H252.156V7H254.406V52ZM249.906 52H247.656V7H249.906V52ZM245.406 52H243.156V7H245.406V52ZM258.906 40.75H280.438V43H258.906V45.25H280.438V47.5H258.906V49.75H280.438V52H256.656V7H280.438V9.25H258.906V11.5H280.438V13.75H258.906V16H280.438V18.25H258.906V23.8438H279.188V26.0938H258.906V28.3438H279.188V30.5938H258.906V32.8438H279.188V35.0938H258.906V40.75Z" fill="#BE23A5"/>
<path d="M293.812 19.4688H296.062V52H293.812V19.4688ZM284.812 9.25V7H318.562V9.25H284.812ZM284.812 13.75V11.5H318.562V13.75H284.812ZM284.812 18.25V16H318.562V18.25H284.812ZM307.312 19.4688H309.562V52H307.312V19.4688ZM302.812 19.4688H305.062V52H302.812V19.4688ZM298.312 19.4688H300.562V52H298.312V19.4688Z" fill="#119DEC"/>
<path d="M337.031 7H339.281V52H337.031V7ZM332.531 7H334.781V52H332.531V7ZM328.031 7H330.281V52H328.031V7ZM323.531 7H325.781V52H323.531V7Z" fill="#7454CE"/>
<path d="M377.531 22.5L375.719 23.875C373.906 21.625 371.573 20.5 368.719 20.5C366.24 20.5 364.115 21.3854 362.344 23.1562C360.594 24.9062 359.719 27.0208 359.719 29.5C359.719 31.9792 360.594 34.1042 362.344 35.875C364.115 37.625 366.24 38.5 368.719 38.5C370.115 38.5 371.417 38.1979 372.625 37.5938C373.854 36.9896 374.896 36.1562 375.75 35.0938L377.5 36.5625C376.458 37.875 375.167 38.9062 373.625 39.6562C372.083 40.3854 370.448 40.75 368.719 40.75C365.615 40.75 362.958 39.6562 360.75 37.4688C358.562 35.2604 357.469 32.6042 357.469 29.5C357.469 26.3958 358.562 23.75 360.75 21.5625C362.958 19.3542 365.615 18.25 368.719 18.25C370.469 18.25 372.115 18.6354 373.656 19.4062C375.198 20.1562 376.49 21.1875 377.531 22.5ZM381.031 19.6875L379.25 21.0625C378 19.4792 376.448 18.2396 374.594 17.3438C372.76 16.4479 370.802 16 368.719 16C364.99 16 361.802 17.3229 359.156 19.9688C356.531 22.6146 355.219 25.7917 355.219 29.5C355.219 33.2083 356.531 36.3854 359.156 39.0312C361.802 41.6771 364.99 43 368.719 43C370.802 43 372.771 42.5521 374.625 41.6562C376.479 40.7396 378.031 39.4896 379.281 37.9062L381 39.3438C379.542 41.1771 377.74 42.625 375.594 43.6875C373.448 44.7292 371.156 45.25 368.719 45.25C365.865 45.25 363.229 44.5521 360.812 43.1562C358.396 41.7396 356.479 39.8229 355.062 37.4062C353.667 34.9896 352.969 32.3542 352.969 29.5C352.969 26.6458 353.667 24.0104 355.062 21.5938C356.479 19.1771 358.396 17.2708 360.812 15.875C363.229 14.4583 365.865 13.75 368.719 13.75C371.156 13.75 373.448 14.2812 375.594 15.3438C377.76 16.3854 379.573 17.8333 381.031 19.6875ZM384.562 16.875L382.812 18.2812C381.125 16.1771 379.052 14.5208 376.594 13.3125C374.135 12.1042 371.51 11.5 368.719 11.5C366.281 11.5 363.948 11.9792 361.719 12.9375C359.51 13.875 357.594 15.1562 355.969 16.7812C354.365 18.3854 353.083 20.3021 352.125 22.5312C351.188 24.7396 350.719 27.0625 350.719 29.5C350.719 31.9375 351.188 34.2708 352.125 36.5C353.083 38.7083 354.365 40.625 355.969 42.25C357.594 43.8542 359.51 45.1354 361.719 46.0938C363.948 47.0312 366.281 47.5 368.719 47.5C371.51 47.5 374.135 46.8958 376.594 45.6875C379.052 44.4792 381.125 42.8229 382.812 40.7188L384.5 42.1875C382.604 44.5417 380.281 46.3958 377.531 47.75C374.781 49.0833 371.844 49.75 368.719 49.75C365.969 49.75 363.344 49.2188 360.844 48.1562C358.344 47.0729 356.188 45.6354 354.375 43.8438C352.583 42.0312 351.146 39.875 350.062 37.375C349 34.875 348.469 32.25 348.469 29.5C348.469 26.75 349 24.125 350.062 21.625C351.146 19.125 352.583 16.9792 354.375 15.1875C356.188 13.375 358.344 11.9375 360.844 10.875C363.344 9.79167 365.969 9.25 368.719 9.25C371.865 9.25 374.812 9.92708 377.562 11.2812C380.333 12.6354 382.667 14.5 384.562 16.875ZM388.062 14.0625L386.25 15.4062C384.146 12.8021 381.562 10.75 378.5 9.25C375.458 7.75 372.198 7 368.719 7C365.677 7 362.76 7.59375 359.969 8.78125C357.198 9.96875 354.802 11.5729 352.781 13.5938C350.781 15.5938 349.188 17.9896 348 20.7812C346.812 23.5521 346.219 26.4583 346.219 29.5C346.219 32.5417 346.812 35.4583 348 38.25C349.188 41.0208 350.781 43.4167 352.781 45.4375C354.802 47.4375 357.198 49.0312 359.969 50.2188C362.76 51.4062 365.677 52 368.719 52C372.198 52 375.458 51.25 378.5 49.75C381.562 48.25 384.146 46.1979 386.25 43.5938L388.031 44.9688C385.719 47.8438 382.875 50.1146 379.5 51.7812C376.146 53.4271 372.552 54.25 368.719 54.25C365.365 54.25 362.156 53.5938 359.094 52.2812C356.052 50.9688 353.427 49.2083 351.219 47C349.01 44.7917 347.25 42.1667 345.938 39.125C344.625 36.0625 343.969 32.8542 343.969 29.5C343.969 26.1458 344.625 22.9479 345.938 19.9062C347.25 16.8438 349.01 14.2083 351.219 12C353.427 9.79167 356.052 8.03125 359.094 6.71875C362.156 5.40625 365.365 4.75 368.719 4.75C372.552 4.75 376.156 5.58333 379.531 7.25C382.906 8.89583 385.75 11.1667 388.062 14.0625Z" fill="#2D56C0"/>
<path d="M424.281 29.8125C424.281 27.1458 423.458 25.0833 421.812 23.625C420.167 22.1667 417.99 21.4375 415.281 21.4375C412.99 21.4375 411.021 22.2292 409.375 23.8125C407.729 25.3958 406.906 27.2917 406.906 29.5C406.906 30.75 407.073 31.875 407.406 32.875C407.74 33.8542 408.188 34.6771 408.75 35.3438C409.333 35.9896 410.021 36.5312 410.812 36.9688C411.604 37.3854 412.427 37.6875 413.281 37.875C414.156 38.0625 415.083 38.1562 416.062 38.1562C418.438 38.1562 420.604 37.5729 422.562 36.4062V38.6562C420.542 39.7188 418.365 40.25 416.031 40.25C414.531 40.25 413.115 40.0521 411.781 39.6562C410.469 39.2396 409.271 38.625 408.188 37.8125C407.104 36.9792 406.24 35.8542 405.594 34.4375C404.969 33 404.656 31.3542 404.656 29.5C404.656 26.625 405.667 24.1875 407.688 22.1875C409.708 20.1875 412.24 19.1875 415.281 19.1875C418.635 19.1875 421.344 20.1354 423.406 22.0312C425.49 23.9062 426.531 26.5 426.531 29.8125V52H424.281V29.8125ZM431.031 29.8125V52H428.781V29.8125C428.781 25.875 427.521 22.75 425 20.4375C422.479 18.1042 419.24 16.9375 415.281 16.9375C411.615 16.9375 408.552 18.1562 406.094 20.5938C403.635 23.0312 402.406 26 402.406 29.5C402.406 31.625 402.771 33.5312 403.5 35.2188C404.25 36.9062 405.26 38.2604 406.531 39.2812C407.802 40.3021 409.219 41.0833 410.781 41.625C412.365 42.1458 414.031 42.4062 415.781 42.4062C418.156 42.4062 420.417 41.8542 422.562 40.75V43.125C420.312 44.0625 418.042 44.5312 415.75 44.5312C413.688 44.5312 411.729 44.2188 409.875 43.5938C408.021 42.9479 406.365 42.0208 404.906 40.8125C403.448 39.5833 402.292 38 401.438 36.0625C400.583 34.1042 400.156 31.9167 400.156 29.5C400.156 25.3958 401.604 21.9062 404.5 19.0312C407.417 16.1354 411.01 14.6875 415.281 14.6875C418.281 14.6875 420.969 15.3021 423.344 16.5312C425.719 17.7396 427.594 19.5 428.969 21.8125C430.344 24.125 431.031 26.7917 431.031 29.8125ZM435.531 29.8125V52H433.281V29.8125C433.281 26.375 432.49 23.3333 430.906 20.6875C429.344 18.0208 427.198 15.9792 424.469 14.5625C421.74 13.1458 418.677 12.4375 415.281 12.4375C412.052 12.4375 409.104 13.2083 406.438 14.75C403.771 16.2708 401.677 18.3333 400.156 20.9375C398.656 23.5417 397.906 26.3958 397.906 29.5C397.906 32.1667 398.396 34.6042 399.375 36.8125C400.354 39 401.667 40.8021 403.312 42.2188C404.979 43.6354 406.865 44.7396 408.969 45.5312C411.094 46.3021 413.312 46.6875 415.625 46.6875C417.979 46.6875 420.292 46.1979 422.562 45.2188V47.5C420.188 48.3958 417.854 48.8438 415.562 48.8438C411.958 48.8438 408.646 48.0312 405.625 46.4062C402.604 44.7812 400.188 42.4792 398.375 39.5C396.562 36.5208 395.656 33.1875 395.656 29.5C395.656 26.875 396.156 24.375 397.156 22C398.177 19.625 399.552 17.5729 401.281 15.8438C403.01 14.1146 405.094 12.7396 407.531 11.7188C409.969 10.6979 412.552 10.1875 415.281 10.1875C419.094 10.1875 422.531 11 425.594 12.625C428.677 14.25 431.104 16.5625 432.875 19.5625C434.646 22.5625 435.531 25.9792 435.531 29.8125ZM440.031 29.8125V52H437.781V29.8125C437.781 25.5625 436.792 21.7708 434.812 18.4375C432.833 15.0833 430.135 12.5 426.719 10.6875C423.302 8.85417 419.49 7.9375 415.281 7.9375C411.24 7.9375 407.542 8.90625 404.188 10.8438C400.833 12.7812 398.198 15.4062 396.281 18.7188C394.365 22.0104 393.406 25.6042 393.406 29.5C393.406 32.0625 393.812 34.5 394.625 36.8125C395.458 39.1042 396.583 41.1146 398 42.8438C399.438 44.5521 401.083 46.0312 402.938 47.2812C404.812 48.5312 406.823 49.4792 408.969 50.125C411.135 50.7708 413.333 51.0938 415.562 51.0938C418.021 51.0938 420.354 50.625 422.562 49.6875V52C420.25 52.8125 417.875 53.2188 415.438 53.2188C412.917 53.2188 410.458 52.8646 408.062 52.1562C405.688 51.4479 403.479 50.4062 401.438 49.0312C399.417 47.6354 397.635 46 396.094 44.125C394.552 42.2292 393.344 40.0208 392.469 37.5C391.594 34.9792 391.156 32.3125 391.156 29.5C391.156 26.2708 391.76 23.1979 392.969 20.2812C394.198 17.3438 395.865 14.8125 397.969 12.6875C400.094 10.5417 402.656 8.84375 405.656 7.59375C408.677 6.32292 411.885 5.6875 415.281 5.6875C418.74 5.6875 421.99 6.27083 425.031 7.4375C428.073 8.60417 430.698 10.2292 432.906 12.3125C435.115 14.375 436.854 16.9167 438.125 19.9375C439.396 22.9583 440.031 26.25 440.031 29.8125Z" fill="#CD13EC"/>
</g>
<defs>
<filter id="filter0_d_4_2" x="0.03125" y="0.25" width="444" height="62" filterUnits="userSpaceOnUse" color-interpolation-filters="sRGB">
<feFlood flood-opacity="0" result="BackgroundImageFix"/>
<feColorMatrix in="SourceAlpha" type="matrix" values="0 0 0 0 0 0 0 0 0 0 0 0 0 0 0 0 0 0 127 0" result="hardAlpha"/>
<feOffset dy="4"/>
<feGaussianBlur stdDeviation="2"/>
<feComposite in2="hardAlpha" operator="out"/>
<feColorMatrix type="matrix" values="0 0 0 0 0 0 0 0 0 0 0 0 0 0 0 0 0 0 0.25 0"/>
<feBlend mode="normal" in2="BackgroundImageFix" result="effect1_dropShadow_4_2"/>
<feBlend mode="normal" in="SourceGraphic" in2="effect1_dropShadow_4_2" result="shape"/>
</filter>
</defs>
</svg>
