<?xml version="1.0" encoding="iso-8859-1"?>
<!-- Generator: Adobe Illustrator 19.0.0, SVG Export Plug-In . SVG Version: 6.00 Build 0)  -->
<svg version="1.1" id="Layer_1" xmlns="http://www.w3.org/2000/svg" xmlns:xlink="http://www.w3.org/1999/xlink" x="0px" y="0px"
	 viewBox="0 0 496 496" style="enable-background:new 0 0 496 496;" xml:space="preserve">
<g>
	<g>
		<g>
			<path d="M496,41.936C496,18.816,477.184,0,454.056,0c-11.192,0-21.728,4.36-29.656,12.272L404,32.68l-6.336-6.336l-11.312,11.312
				L392.688,44L380,56.688l-6.344-6.344l-11.312,11.312L368.688,68l-17.96,17.96C319.976,66.416,284.648,56,248,56
				C142.136,56,56,142.136,56,248c0,36.648,10.416,71.984,29.96,102.728L0,436.688V496h59.312l85.952-85.952
				C176.024,429.584,211.352,440,248,440c105.864,0,192-86.136,192-192c0-36.656-10.416-71.984-29.96-102.728l17.96-17.96
				l6.344,6.344l11.312-11.312L439.312,116L452,103.312l6.344,6.344l11.312-11.312L463.312,92l20.4-20.4
				C491.64,63.68,496,53.152,496,41.936z M72,248c0-97.048,78.952-176,176-176c32.392,0,63.672,8.856,91.136,25.544L97.544,339.136
				C80.864,311.68,72,280.4,72,248z M16,480v-36.688L52.688,480H16z M424,248c0,97.048-78.952,176-176,176
				c-32.392,0-63.672-8.864-91.136-25.552l241.592-241.592C415.136,184.32,424,215.6,424,248z M64,468.688L27.312,432L380,79.312
				L416.688,116L64,468.688z M428,104.688L391.312,68L404,55.312L440.688,92L428,104.688z M472.4,60.28L452,80.688L415.312,44
				l20.4-20.4c4.904-4.904,11.424-7.6,18.344-7.6C468.36,16,480,27.632,480,41.936C480,48.872,477.304,55.384,472.4,60.28z"/>
			<rect x="296" y="280" width="16" height="16"/>
			<rect x="328" y="280" width="16" height="16"/>
			<rect x="360" y="280" width="16" height="16"/>
			<rect x="120" y="200" width="16" height="16"/>
			<rect x="152" y="200" width="16" height="16"/>
			<rect x="184" y="200" width="16" height="16"/>
		</g>
	</g>
</g>
<g>
</g>
<g>
</g>
<g>
</g>
<g>
</g>
<g>
</g>
<g>
</g>
<g>
</g>
<g>
</g>
<g>
</g>
<g>
</g>
<g>
</g>
<g>
</g>
<g>
</g>
<g>
</g>
<g>
</g>
</svg>
