<svg width="386" height="58" viewBox="0 0 386 58" fill="none" xmlns="http://www.w3.org/2000/svg">
<g filter="url(#filter0_d_2_2)">
<path d="M4.712 50V11.6C4.712 10.192 5.05333 8.912 5.736 7.76C6.41867 6.56533 7.336 5.62666 8.488 4.944C9.68267 4.26133 10.984 3.92 12.392 3.92H43.112C44.52 3.92 45.8 4.26133 46.952 4.944C48.1467 5.62666 49.0853 6.56533 49.768 7.76C50.4507 8.912 50.792 10.192 50.792 11.6V50H45.608V33.168H9.896V50H4.712ZM9.896 27.984H45.608V11.6C45.608 10.9173 45.352 10.3413 44.84 9.872C44.3707 9.36 43.7947 9.104 43.112 9.104H12.392C11.7093 9.104 11.112 9.36 10.6 9.872C10.1307 10.3413 9.896 10.9173 9.896 11.6V27.984Z" fill="#8139BA"/>
<path d="M65.508 50C64.1 50 62.7987 49.6587 61.604 48.976C60.452 48.2507 59.5133 47.312 58.788 46.16C58.1053 44.9653 57.764 43.664 57.764 42.256V20.624C57.764 19.216 58.1053 17.936 58.788 16.784C59.5133 15.5893 60.452 14.6507 61.604 13.968C62.7987 13.2427 64.1 12.88 65.508 12.88H87.78C89.2307 12.88 90.532 13.2427 91.684 13.968C92.8787 14.6507 93.8173 15.5893 94.5 16.784C95.2253 17.936 95.588 19.216 95.588 20.624V34.064H63.012V42.256C63.012 42.9387 63.2467 43.536 63.716 44.048C64.228 44.5173 64.8253 44.752 65.508 44.752H95.588V50H65.508ZM63.012 28.816H90.276V20.624C90.276 19.9413 90.02 19.3653 89.508 18.896C89.0387 18.384 88.4627 18.128 87.78 18.128H65.508C64.8253 18.128 64.228 18.384 63.716 18.896C63.2467 19.3653 63.012 19.9413 63.012 20.624V28.816Z" fill="#C656D9"/>
<path d="M109.629 50C108.221 50 106.919 49.6587 105.725 48.976C104.573 48.2507 103.634 47.312 102.909 46.16C102.226 44.9653 101.885 43.664 101.885 42.256V41.744H107.133V42.256C107.133 42.9387 107.367 43.536 107.837 44.048C108.349 44.5173 108.946 44.752 109.629 44.752H131.901C132.583 44.752 133.159 44.5173 133.629 44.048C134.141 43.536 134.397 42.9387 134.397 42.256V36.56C134.397 35.8773 134.141 35.3013 133.629 34.832C133.159 34.32 132.583 34.064 131.901 34.064H109.629C108.221 34.064 106.919 33.7227 105.725 33.04C104.573 32.3147 103.634 31.376 102.909 30.224C102.226 29.0293 101.885 27.728 101.885 26.32V20.624C101.885 19.216 102.226 17.936 102.909 16.784C103.634 15.5893 104.573 14.6507 105.725 13.968C106.919 13.2427 108.221 12.88 109.629 12.88H131.901C133.351 12.88 134.653 13.2427 135.805 13.968C136.999 14.6507 137.938 15.5893 138.621 16.784C139.346 17.936 139.709 19.216 139.709 20.624V21.136H134.397V20.624C134.397 19.9413 134.141 19.3653 133.629 18.896C133.159 18.384 132.583 18.128 131.901 18.128H109.629C108.946 18.128 108.349 18.384 107.837 18.896C107.367 19.3653 107.133 19.9413 107.133 20.624V26.32C107.133 27.0027 107.367 27.6 107.837 28.112C108.349 28.5813 108.946 28.816 109.629 28.816H131.901C133.351 28.816 134.653 29.1787 135.805 29.904C136.999 30.5867 137.938 31.5253 138.621 32.72C139.346 33.872 139.709 35.152 139.709 36.56V42.256C139.709 43.664 139.346 44.9653 138.621 46.16C137.938 47.312 136.999 48.2507 135.805 48.976C134.653 49.6587 133.351 50 131.901 50H109.629Z" fill="#1B4AC1"/>
<path d="M153.824 50C152.373 50 151.05 49.6587 149.856 48.976C148.704 48.2507 147.786 47.312 147.104 46.16C146.421 44.9653 146.08 43.664 146.08 42.256V0.719997H151.328V12.88H167.392V18.128H151.328V42.256C151.328 42.9387 151.562 43.536 152.032 44.048C152.544 44.5173 153.141 44.752 153.824 44.752H167.392V50H153.824Z" fill="#7116B9"/>
<path d="M172.394 50V0.719997H177.642V12.88H202.474C203.882 12.88 205.162 13.2427 206.314 13.968C207.508 14.6507 208.447 15.5893 209.13 16.784C209.855 17.936 210.218 19.216 210.218 20.624V50H204.97V20.624C204.97 19.9413 204.714 19.3653 204.201 18.896C203.732 18.384 203.156 18.128 202.474 18.128H180.202C179.519 18.128 178.922 18.384 178.41 18.896C177.898 19.3653 177.642 19.9413 177.642 20.624V50H172.394Z" fill="#4E0ADE"/>
<path d="M222.696 50C221.288 50 219.986 49.6587 218.792 48.976C217.64 48.2507 216.701 47.312 215.976 46.16C215.293 44.9653 214.952 43.664 214.952 42.256V20.624C214.952 19.216 215.293 17.936 215.976 16.784C216.701 15.5893 217.64 14.6507 218.792 13.968C219.986 13.2427 221.288 12.88 222.696 12.88H244.968C246.418 12.88 247.72 13.2427 248.872 13.968C250.066 14.6507 251.005 15.5893 251.688 16.784C252.413 17.936 252.776 19.216 252.776 20.624V34.064H220.2V42.256C220.2 42.9387 220.434 43.536 220.904 44.048C221.416 44.5173 222.013 44.752 222.696 44.752H252.776V50H222.696ZM220.2 28.816H247.464V20.624C247.464 19.9413 247.208 19.3653 246.696 18.896C246.226 18.384 245.65 18.128 244.968 18.128H222.696C222.013 18.128 221.416 18.384 220.904 18.896C220.434 19.3653 220.2 19.9413 220.2 20.624V28.816Z" fill="#BE23A5"/>
<path d="M267.136 50C265.685 50 264.363 49.6587 263.168 48.976C262.016 48.2507 261.099 47.312 260.416 46.16C259.733 44.9653 259.392 43.664 259.392 42.256V0.719997H264.64V12.88H280.704V18.128H264.64V42.256C264.64 42.9387 264.875 43.536 265.344 44.048C265.856 44.5173 266.453 44.752 267.136 44.752H280.704V50H267.136Z" fill="#119DEC"/>
<path d="M285.578 50V12.88H290.826V50H285.578ZM285.578 5.968V0.719997H290.826V5.968H285.578Z" fill="#7454CE"/>
<path d="M306.571 50C305.163 50 303.861 49.6587 302.667 48.976C301.515 48.2507 300.576 47.312 299.851 46.16C299.168 44.9653 298.827 43.664 298.827 42.256V20.624C298.827 19.216 299.168 17.936 299.851 16.784C300.576 15.5893 301.515 14.6507 302.667 13.968C303.861 13.2427 305.163 12.88 306.571 12.88H336.523V18.128H306.571C305.888 18.128 305.291 18.384 304.779 18.896C304.309 19.3653 304.075 19.9413 304.075 20.624V42.256C304.075 42.9387 304.309 43.536 304.779 44.048C305.291 44.5173 305.888 44.752 306.571 44.752H336.651V50H306.571Z" fill="#2D56C0"/>
<path d="M351.135 50C349.727 50 348.425 49.6587 347.231 48.976C346.079 48.2507 345.14 47.312 344.415 46.16C343.732 44.9653 343.391 43.664 343.391 42.256V28.816H375.903V20.624C375.903 19.9413 375.647 19.3653 375.135 18.896C374.665 18.384 374.089 18.128 373.407 18.128H343.391V12.88H373.407C374.857 12.88 376.159 13.2427 377.311 13.968C378.505 14.6507 379.444 15.5893 380.127 16.784C380.852 17.936 381.215 19.216 381.215 20.624V50H351.135ZM351.135 44.752H375.903V34.064H348.639V42.256C348.639 42.9387 348.873 43.536 349.343 44.048C349.855 44.5173 350.452 44.752 351.135 44.752Z" fill="#CD13EC"/>
</g>
<defs>
<filter id="filter0_d_2_2" x="0.712006" y="0.720001" width="384.503" height="57.28" filterUnits="userSpaceOnUse" color-interpolation-filters="sRGB">
<feFlood flood-opacity="0" result="BackgroundImageFix"/>
<feColorMatrix in="SourceAlpha" type="matrix" values="0 0 0 0 0 0 0 0 0 0 0 0 0 0 0 0 0 0 127 0" result="hardAlpha"/>
<feOffset dy="4"/>
<feGaussianBlur stdDeviation="2"/>
<feComposite in2="hardAlpha" operator="out"/>
<feColorMatrix type="matrix" values="0 0 0 0 0 0 0 0 0 0 0 0 0 0 0 0 0 0 0.25 0"/>
<feBlend mode="normal" in2="BackgroundImageFix" result="effect1_dropShadow_2_2"/>
<feBlend mode="normal" in="SourceGraphic" in2="effect1_dropShadow_2_2" result="shape"/>
</filter>
</defs>
</svg>
